<svg width="322" height="312" viewBox="0 0 322 312" fill="none" xmlns="http://www.w3.org/2000/svg">
<rect x="0.5" y="0.5" width="321" height="311" fill="white" stroke="white"/>
<rect x="159.137" y="23.9289" width="170" height="170" transform="rotate(45 159.137 23.9289)" fill="white" stroke="#0D6BB7" stroke-width="10"/>
<rect x="9" y="144" width="300" height="150" fill="white"/>
<rect x="79" y="149" width="162" height="140" fill="white" stroke="#0D6BB7" stroke-width="10"/>
<rect x="84" y="130" width="152" height="35" fill="white"/>
<path d="M159 130.5C189.757 130.5 214.5 154.332 214.5 183.5C214.5 212.668 189.757 236.5 159 236.5C128.243 236.5 103.5 212.668 103.5 183.5C103.5 154.332 128.243 130.5 159 130.5Z" fill="white" stroke="#3A90E6" stroke-width="5"/>
<path d="M164 183.778C165.2 183.778 176.5 157.278 194.5 183.778" stroke="#3A90E6" stroke-width="4"/>
<path d="M121.5 185C122.7 185 134 158.5 152 185" stroke="#3A90E6" stroke-width="4"/>
<path d="M174.5 204C173.3 204 162 230.5 144 204" stroke="#3A90E6" stroke-width="4"/>
<path d="M164 110C164 111.2 190.5 122.5 164 140.5" stroke="#3A90E6" stroke-width="4"/>
</svg>
